<svg xmlns="http://www.w3.org/2000/svg" viewBox="0 0 1200 1500" width="1200" height="1500" role="img">
  <defs>
    <linearGradient id="bg" x1="0" y1="0" x2="0.3" y2="1">
      <stop offset="0" stop-color="#fff1f8"/>
      <stop offset="1" stop-color="#fcdcec"/>
    </linearGradient>
    <pattern id="stitch" width="52" height="46" patternUnits="userSpaceOnUse">
      <path d="M4 40 L26 8 L48 40" fill="none" stroke="#fff" stroke-opacity="0.20" stroke-width="6" stroke-linecap="round" stroke-linejoin="round"/>
      <path d="M-22 40 L0 8 L22 40" fill="none" stroke="#fff" stroke-opacity="0.20" stroke-width="6" stroke-linecap="round" stroke-linejoin="round"/>
    </pattern>
    <radialGradient id="glow" cx="0.5" cy="0.42" r="0.62">
      <stop offset="0" stop-color="#ffffff" stop-opacity="0.85"/>
      <stop offset="1" stop-color="#ffffff" stop-opacity="0"/>
    </radialGradient>
    <clipPath id="objclip"><path d="M600 620 a290 290 0 0 1 290 290 v120 H310 V910 a290 290 0 0 1 290-290 Z"/><path d="M310 1030 h580 v70 a60 60 0 0 1-60 60 H370 a60 60 0 0 1-60-60 Z"/></clipPath>
  </defs>

  <rect width="1200" height="1500" fill="url(#bg)"/>
  <circle cx="600" cy="640" r="470" fill="url(#glow)"/>
  <ellipse cx="600" cy="1372" rx="330" ry="46" fill="#cb6394" opacity="0.13"/>

  <g>
    <path d="M600 620 a290 290 0 0 1 290 290 v120 H310 V910 a290 290 0 0 1 290-290 Z" fill="#f08cbb" />
    <path d="M310 1030 h580 v70 a60 60 0 0 1-60 60 H370 a60 60 0 0 1-60-60 Z" fill="#fbc9de" />
  </g>
  <g clip-path="url(#objclip)"><rect width="1200" height="1500" fill="url(#stitch)"/></g>
  <g fill="none" stroke="#fff" stroke-opacity=".36" stroke-width="8">
        <path d="M330 1020 q270 -300 540 0"/><path d="M336 1020 q270 -260 540 0"/><path d="M342 1020 q270 -220 540 0"/><path d="M348 1020 q270 -180 540 0"/><path d="M354 1020 q270 -140 540 0"/><path d="M360 1020 q270 -100 540 0"/>
      </g>
      <g stroke="#cb6394" stroke-width="16" fill="none" stroke-linecap="round" opacity=".75">
        <path d="M340 1150 q-60 160 40 250"/>
        <path d="M860 1150 q60 160-40 250"/>
      </g>
</svg>